# xmcd
#
# Track frame offsets:
#	183
#	11118
#	24828
#	37098
#	51995
#	63583
#	75100
#	87778
#	100128
#	113220
#	125683
#	139473
#
# Disc length: 2043 seconds
#
# Revision: 0
# Processed by: cddbd v1.5.1PL0 Copyright (c) Steve Scherf et al.
# Submitted via: audiograbber 1.83.01
#
DISCID=9c07f90c
DTITLE=Serrinha and Zé do Rancho - Som da Terra
DYEAR=1994
DGENRE=Caipira
TTITLE0=Referências
TTITLE1=O sonho do matuto
TTITLE2=O que tem a rosa
TTITLE3=O crime da mariazinha
TTITLE4=Caboclina malvada
TTITLE5=Velho gaúcho
TTITLE6=Jorginho do sertão
TTITLE7=Azulão cor de anil
TTITLE8=Canoeiro apaixonado
TTITLE9=Bonde do camarão
TTITLE10=Abandonado
TTITLE11=Bom Jesus de Pirapora
EXTD=
EXTT0=
EXTT1=
EXTT2=
EXTT3=
EXTT4=
EXTT5=
EXTT6=
EXTT7=
EXTT8=
EXTT9=
EXTT10=
EXTT11=
PLAYORDER=
